<svg width="18" height="18" viewBox="0 0 18 18" fill="none" xmlns="http://www.w3.org/2000/svg">
<path d="M15.3639 2.63602C13.6641 0.936166 11.404 0 9 0C6.59602 0 4.33592 0.936166 2.63602 2.63602C0.936166 4.33592 0 6.59602 0 9C0 11.404 0.936166 13.6641 2.63602 15.364C4.33592 17.0638 6.59602 18 9 18C11.404 18 13.6641 17.0638 15.3639 15.364C17.0638 13.6641 18 11.404 18 9C18 6.59602 17.0638 4.33592 15.3639 2.63602ZM7.31661 13.157C7.31661 12.2273 8.07036 11.4735 9.00012 11.4735C9.92989 11.4735 10.6836 12.2273 10.6836 13.157C10.6836 14.0868 9.92989 14.8406 9.00012 14.8406C8.07036 14.8406 7.31661 14.0868 7.31661 13.157ZM9.10767 17.3127C11.3538 17.2556 13.157 15.417 13.157 13.157C13.157 10.8611 11.2959 9 8.99996 9C6.70444 9 4.84291 7.13889 4.84291 4.84296C4.84291 2.65556 6.53259 0.862878 8.67745 0.698259C8.68776 0.69751 8.96146 0.685954 8.99838 0.685912C8.99892 0.685912 8.99946 0.685912 8.99996 0.685912C13.5918 0.685912 17.314 4.40813 17.314 9C17.3141 13.5559 13.6498 17.255 9.10767 17.3127Z" fill="white"/>
</svg>
